<?xml version="1.0" encoding="UTF-8"?><svg id="Ebene_1" xmlns="http://www.w3.org/2000/svg" viewBox="0 0 505 400"><defs><style>.cls-1{fill:#002432;}.cls-2{fill:#fff;}.cls-3{fill:#fc0;}</style></defs><rect class="cls-3" width="505" height="400"/><g><path class="cls-1" d="M255.56,232.12v-32.59h6.46v6.46h.75c.94-4.14,3.57-6.46,7.46-6.46h1.63v6.58h-2.76c-4.58,0-7.08,1.69-7.08,5.52v20.5h-6.46Z"/><path class="cls-1" d="M295.29,219.65v-7.65c0-5.26-2.38-7.83-6.71-7.83s-6.7,2.57-6.7,7.83v7.65c0,5.26,2.38,7.83,6.7,7.83s6.71-2.57,6.71-7.83m-20.24-3.82c0-11.84,5.26-17.05,13.54-17.05s13.54,5.2,13.54,17.05-5.26,17.05-13.54,17.05-13.54-5.2-13.54-17.05"/><path class="cls-1" d="M326.5,226.73h-.81c-1.32,4.14-4.01,6.14-8.09,6.14-5.77,0-9.15-4.08-9.15-11.72v-21.62h6.45v20.74c0,4.64,1.82,7.08,5.52,7.08,3.32,0,6.08-2.19,6.08-5.83v-22h6.46v32.59h-6.46v-5.39Z"/><path class="cls-1" d="M361.47,219.46v-7.27c0-5.02-2.57-7.9-6.96-7.9-3.63,0-6.33,2.07-6.33,5.39v12.29c0,3.32,2.69,5.39,6.33,5.39,4.39,0,6.96-2.88,6.96-7.9m-19.74-19.93h6.46v5.33h.75c1.06-3.82,4.08-6.08,7.9-6.08,7.65,0,11.47,6.2,11.47,17.05s-3.82,17.05-11.47,17.05c-3.82,0-6.83-2.26-7.9-6.08h-.75v17.86h-6.46v-45.13Z"/><path class="cls-1" d="M237.32,240.64h-3.89c-4.45,0-6.2-1.69-6.2-4.64,0-1.69,.56-2.94,1.88-3.88h10.03c3.76,0,5.2,1.38,5.2,3.82,0,3.2-2.13,4.7-7.02,4.7m-7.58-31.71c0-3.63,1.94-5.52,5.58-5.52s5.58,1.88,5.58,5.52v1.88c0,3.63-1.94,5.52-5.58,5.52s-5.58-1.88-5.58-5.52v-1.88Zm10.4,17.42h-7.83c-2.57,0-3.63-.88-3.63-2.51,0-1.38,.88-2.76,2.51-3.26,1.25,.25,2.63,.44,4.13,.44,7.77,0,11.85-3.95,11.85-11.09,0-4.01-1.51-7.08-4.2-8.71v-1.44h4.38l1.64-5.2h-4.51c-2.63,0-3.89,1.25-3.89,4.07v1.06c-1.56-.63-3.38-.94-5.26-.94-7.77,0-11.84,4.01-11.84,11.16,0,4.76,1.82,8.02,5.26,9.78v.75c-3.2,.5-5.2,2.38-5.2,5.26,0,2.32,1.13,4.07,3.45,4.89v1.06c-3.13,.5-5.08,2.51-5.08,5.83,0,5.08,3.51,7.9,13.41,7.9,10.97,0,15.11-3.26,15.11-10.09,0-5.76-2.88-8.96-10.28-8.96"/><path class="cls-2" d="M200.61,246.17c-3.58,0-6.5,2.92-6.5,6.5s2.92,6.5,6.5,6.5,6.5-2.92,6.5-6.5-2.92-6.5-6.5-6.5"/><path class="cls-2" d="M162.87,214.39c0-4.65,1.82-8.95,5.13-12.12,3.23-3.09,7.49-4.68,11.99-4.48,4.37,.2,8.43,2.08,11.45,5.3,3,3.2,4.66,7.39,4.66,11.79v2.4h-33.22v-2.89Zm20.22,35.39h0c-5.43,.09-10.43-1.81-14.18-5.38-3.84-3.65-6.04-8.8-6.04-14.12v-5.78h42.72c.62-4,.62-6.86,.61-8.78v-.31c0-14.82-11.92-26.94-26.57-27.03h-.15c-8.16,0-15.99,3.79-21,10.17-4.3,5.48-6.48,12.99-6.48,22.33,0,7.55,.59,12.76,1.91,16.92,2.2,6.9,6.31,12.55,11.9,16.34,4.89,3.31,10.58,5.03,16.55,5.03h1.44v-9.39h-.72Z"/><path class="cls-2" d="M237.45,151.55c0,7.58-6.14,13.72-13.72,13.72h-17.33c-.4,0-.72-.32-.72-.72v-29.61h18.06c7.58,0,13.72,6.15,13.72,13.72v2.89Zm-13.72-26.72h-28.17v60.4c3.9,2.2,7.33,5.14,10.11,8.64v-18.48h18.06c13.16,0,23.83-10.67,23.83-23.84v-2.89c0-13.16-10.67-23.83-23.83-23.83"/></g></svg>